<?xml version="1.0" standalone="no"?>
<!DOCTYPE svg PUBLIC "-//W3C//DTD SVG 20010904//EN"
 "http://www.w3.org/TR/2001/REC-SVG-20010904/DTD/svg10.dtd">
<svg version="1.0" xmlns="http://www.w3.org/2000/svg"
 width="32.000000pt" height="32.000000pt" viewBox="0 0 32.000000 32.000000"
 preserveAspectRatio="xMidYMid meet">

<g transform="translate(0.000000,32.000000) scale(0.100000,-0.100000)"
fill="#000000" stroke="none">
<path d="M12 308 c-17 -17 -17 -279 0 -296 17 -17 279 -17 296 0 17 17 17 279
0 296 -17 17 -279 17 -296 0z m186 -20 c-3 -7 -23 -14 -45 -16 -34 -3 -42 -7
-46 -28 -3 -20 0 -24 19 -24 15 0 24 -6 24 -15 0 -10 -10 -15 -30 -15 -26 0
-30 -4 -35 -37 -10 -56 -13 -63 -31 -63 -13 0 -15 9 -12 45 2 31 -1 45 -9 45
-20 0 -15 18 7 25 11 3 20 9 20 13 0 4 3 18 7 31 5 21 4 22 -15 12 -28 -15
-42 -14 -36 3 9 23 46 35 117 35 51 1 68 -2 65 -11z m107 -9 c7 -22 -18 -59
-41 -59 -15 0 -44 -27 -44 -41 0 -5 5 -9 11 -9 7 0 17 -8 24 -17 11 -15 15
-15 29 -4 13 11 16 11 16 -2 0 -22 -23 -37 -48 -30 -21 5 -22 3 -20 -37 3 -46
-15 -69 -46 -57 -20 8 -22 71 -3 144 10 36 11 55 3 63 -7 7 -6 10 3 10 7 0 26
14 41 30 33 35 66 39 75 9z"/>
<path d="M250 249 c-11 -19 -10 -20 9 -9 22 11 29 30 11 30 -5 0 -14 -9 -20
-21z"/>
<path d="M202 65 c0 -16 2 -22 5 -12 2 9 2 23 0 30 -3 6 -5 -1 -5 -18z"/>
</g>
</svg>
